  0
SECTION
  2
HEADER
  9
$ACADVER
  1
AC1009
  9
$EXTMIN
  10
 0.000000
  20
 0.000000
  30
 0.000000
  9
$EXTMAX
  10
 150.000000
  20
 150.000000
  30
 0.000000
  0
ENDSEC
  0
SECTION
  2
TABLES
  0
TABLE
  2
LAYER
  70
     2048
  0
LAYER
  2
0
  70
    0
  62
     7
  6
CONTINUOUS
  0
LAYER
   2
C1
  70
     64
  62
1
  6
CONTINUOUS
  0
LAYER
   2
C7
  70
     64
  62
7
  6
CONTINUOUS
  0
LAYER
   2
C18
  70
     64
  62
18
  6
CONTINUOUS
  0
LAYER
   2
C179
  70
     64
  62
179
  6
CONTINUOUS
  0
LAYER
   2
C250
  70
     64
  62
250
  6
CONTINUOUS
  0
ENDTAB
  0
ENDSEC
  0
SECTION
  2
ENTITIES
  0
POLYLINE
  8
C179
  66
1
  10
0.000000
  20
150.000000
  0
VERTEX
  8
C179
  10
0.000000
  20
150.000000
  0
SEQEND
  8
C179
  0
POLYLINE
  8
C179
  66
1
  10
0.000000
  20
150.000000
  0
VERTEX
  8
C179
  10
0.000000
  20
150.000000
  0
VERTEX
  8
C179
  10
0.000000
  20
0.000000
  0
VERTEX
  8
C179
  10
150.000000
  20
0.000000
  0
VERTEX
  8
C179
  10
150.000000
  20
150.000000
  0
VERTEX
  8
C179
  10
0.000000
  20
150.000000
  0
SEQEND
  8
C179
  0
POLYLINE
  8
C179
  66
1
  10
10.000000
  20
140.000000
  0
VERTEX
  8
C179
  10
10.000000
  20
140.000000
  0
VERTEX
  8
C179
  10
10.000000
  20
123.000000
  0
VERTEX
  8
C179
  10
26.000000
  20
123.000000
  0
VERTEX
  8
C179
  10
26.000000
  20
140.000000
  0
VERTEX
  8
C179
  10
10.000000
  20
140.000000
  0
SEQEND
  8
C7
  0
POLYLINE
  8
C7
  66
1
  10
26.000000
  20
140.000000
  0
VERTEX
  8
C7
  10
26.000000
  20
140.000000
  0
VERTEX
  8
C7
  10
26.000000
  20
123.000000
  0
VERTEX
  8
C7
  10
10.000000
  20
123.000000
  0
VERTEX
  8
C7
  10
10.000000
  20
24.000000
  0
VERTEX
  8
C7
  10
43.000000
  20
24.000000
  0
VERTEX
  8
C7
  10
43.000000
  20
57.000000
  0
VERTEX
  8
C7
  10
93.000000
  20
57.000000
  0
VERTEX
  8
C7
  10
93.000000
  20
24.000000
  0
VERTEX
  8
C7
  10
126.000000
  20
24.000000
  0
VERTEX
  8
C7
  10
126.000000
  20
123.000000
  0
VERTEX
  8
C7
  10
110.000000
  20
123.000000
  0
VERTEX
  8
C7
  10
110.000000
  20
140.000000
  0
VERTEX
  8
C7
  10
26.000000
  20
140.000000
  0
SEQEND
  8
C7
  0
POLYLINE
  8
C7
  66
1
  10
110.000000
  20
140.000000
  0
VERTEX
  8
C7
  10
110.000000
  20
140.000000
  0
VERTEX
  8
C7
  10
110.000000
  20
123.000000
  0
VERTEX
  8
C7
  10
126.000000
  20
123.000000
  0
VERTEX
  8
C7
  10
126.000000
  20
7.000000
  0
VERTEX
  8
C7
  10
143.000000
  20
7.000000
  0
VERTEX
  8
C7
  10
143.000000
  20
140.000000
  0
VERTEX
  8
C7
  10
110.000000
  20
140.000000
  0
SEQEND
  8
C1
  0
POLYLINE
  8
C1
  66
1
  10
43.000000
  20
123.000000
  0
VERTEX
  8
C1
  10
43.000000
  20
123.000000
  0
VERTEX
  8
C1
  10
43.000000
  20
107.000000
  0
VERTEX
  8
C1
  10
93.000000
  20
107.000000
  0
VERTEX
  8
C1
  10
93.000000
  20
123.000000
  0
VERTEX
  8
C1
  10
43.000000
  20
123.000000
  0
SEQEND
  8
C1
  0
POLYLINE
  8
C1
  66
1
  10
43.000000
  20
107.000000
  0
VERTEX
  8
C1
  10
43.000000
  20
107.000000
  0
VERTEX
  8
C1
  10
43.000000
  20
73.000000
  0
VERTEX
  8
C1
  10
93.000000
  20
73.000000
  0
VERTEX
  8
C1
  10
93.000000
  20
107.000000
  0
VERTEX
  8
C1
  10
43.000000
  20
107.000000
  0
SEQEND
  8
C250
  0
POLYLINE
  8
C250
  66
1
  10
43.000000
  20
57.000000
  0
VERTEX
  8
C250
  10
43.000000
  20
57.000000
  0
VERTEX
  8
C250
  10
43.000000
  20
40.000000
  0
VERTEX
  8
C250
  10
93.000000
  20
40.000000
  0
VERTEX
  8
C250
  10
93.000000
  20
57.000000
  0
VERTEX
  8
C250
  10
43.000000
  20
57.000000
  0
SEQEND
  8
C250
  0
POLYLINE
  8
C250
  66
1
  10
43.000000
  20
40.000000
  0
VERTEX
  8
C250
  10
43.000000
  20
40.000000
  0
VERTEX
  8
C250
  10
43.000000
  20
7.000000
  0
VERTEX
  8
C250
  10
93.000000
  20
7.000000
  0
VERTEX
  8
C250
  10
93.000000
  20
40.000000
  0
VERTEX
  8
C250
  10
43.000000
  20
40.000000
  0
SEQEND
  8
C250
  0
POLYLINE
  8
C250
  66
1
  10
10.000000
  20
24.000000
  0
VERTEX
  8
C250
  10
10.000000
  20
24.000000
  0
VERTEX
  8
C250
  10
10.000000
  20
7.000000
  0
VERTEX
  8
C250
  10
43.000000
  20
7.000000
  0
VERTEX
  8
C250
  10
43.000000
  20
24.000000
  0
VERTEX
  8
C250
  10
10.000000
  20
24.000000
  0
SEQEND
  8
C250
  0
POLYLINE
  8
C250
  66
1
  10
93.000000
  20
24.000000
  0
VERTEX
  8
C250
  10
93.000000
  20
24.000000
  0
VERTEX
  8
C250
  10
93.000000
  20
7.000000
  0
VERTEX
  8
C250
  10
126.000000
  20
7.000000
  0
VERTEX
  8
C250
  10
126.000000
  20
24.000000
  0
VERTEX
  8
C250
  10
93.000000
  20
24.000000
  0
SEQEND
  8
0
  0
ENDSEC
  0
EOF
